<?xml version="1.0" encoding="utf-8"?>
<!-- Svg Vector Icons : http://www.onlinewebfonts.com/icon -->
<!DOCTYPE svg PUBLIC "-//W3C//DTD SVG 1.1//EN" "http://www.w3.org/Graphics/SVG/1.1/DTD/svg11.dtd">
<svg version="1.1" xmlns="http://www.w3.org/2000/svg" xmlns:xlink="http://www.w3.org/1999/xlink" x="0px" y="0px" viewBox="0 0 1000 1000" enable-background="new 0 0 1000 1000" xml:space="preserve">
<metadata> Svg Vector Icons : http://www.onlinewebfonts.com/icon </metadata>
<g><g><g><circle cx="523" cy="124.6" r="114.6"/><path d="M523,852.5c38,0,68.8,30.8,68.8,68.8S560.9,990,523,990c-38,0-68.8-30.8-68.8-68.8S485,852.5,523,852.5z"/><path d="M241.3,138.1c57,0,103.2,46.2,103.2,103.2c0,57-46.2,103.2-103.2,103.2c-57,0-103.2-46.2-103.2-103.2C138.1,184.3,184.3,138.1,241.3,138.1z"/><path d="M804.6,747.2c31.6,0,57.3,25.6,57.3,57.3c0,31.6-25.7,57.3-57.3,57.3c-31.7,0-57.3-25.7-57.3-57.3C747.3,772.9,772.9,747.2,804.6,747.2z"/><circle cx="124.6" cy="523" r="91.7"/><path d="M921.2,477.1c25.3,0,45.8,20.5,45.8,45.8c0,25.3-20.5,45.8-45.8,45.8c-25.3,0-45.8-20.5-45.8-45.8C875.4,497.6,895.9,477.1,921.2,477.1z"/><path d="M184.6,747.9c-31.3,31.4-31.3,82.1,0,113.5c31.3,31.3,82.1,31.3,113.4,0c31.3-31.4,31.3-82.1,0-113.5C266.7,716.5,215.9,716.2,184.6,747.9z"/><path d="M804.5,206.9c19,0,34.4,15.4,34.4,34.4c0,19-15.4,34.4-34.4,34.4c-19,0-34.4-15.4-34.4-34.4C770.2,222.3,785.6,206.9,804.5,206.9z"/></g></g><g></g><g></g><g></g><g></g><g></g><g></g><g></g><g></g><g></g><g></g><g></g><g></g><g></g><g></g><g></g></g>
</svg>